<svg id="Layer_1" data-name="Layer 1" xmlns="http://www.w3.org/2000/svg" xmlns:xlink="http://www.w3.org/1999/xlink" viewBox="0 0 288 288"><defs><style>.cls-1{fill:url(#linear-gradient);}.cls-2{fill:url(#linear-gradient-2);}.cls-3{fill:url(#linear-gradient-3);}.cls-4{fill:url(#linear-gradient-4);}.cls-5{fill:none;stroke:#843267;stroke-linecap:round;stroke-linejoin:round;stroke-width:3px;}.cls-6{fill:url(#linear-gradient-5);}</style><linearGradient id="linear-gradient" x1="68.94" y1="63.14" x2="93.31" y2="63.14" gradientTransform="matrix(0.91, -0.05, 0.18, 1.09, 7.03, 3.58)" gradientUnits="userSpaceOnUse"><stop offset="0" stop-color="#d4145a"/><stop offset="1" stop-color="#9e005d"/></linearGradient><linearGradient id="linear-gradient-2" x1="232.08" y1="87.9" x2="155.92" y2="43.92" xlink:href="#linear-gradient"/><linearGradient id="linear-gradient-3" x1="33.5" y1="141.34" x2="71.11" y2="141.34" xlink:href="#linear-gradient"/><linearGradient id="linear-gradient-4" x1="196.64" y1="163.9" x2="119.94" y2="119.61" xlink:href="#linear-gradient"/><linearGradient id="linear-gradient-5" x1="78.45" y1="28.21" x2="78.45" y2="234.41" xlink:href="#linear-gradient"/></defs><title>v1-logo</title><path class="cls-1" d="M87.7,88.18a1.64,1.64,0,0,1-.23-.52,1.89,1.89,0,0,1,1-2.11c1.16-.78,3-.69,6-.47a19.5,19.5,0,0,0,4.71,0c-.43-1.63-4.64-6.09-7-8.55-4.82-5.1-6.62-7.2-6.42-9a2,2,0,0,1,.89-1.48c1.65-1.12,4.49-.83,7.23-.56.7.07,1.58.16,2.34.19l-.1,0c-1.61-.69-3.28-1.39-3.43-2.95a2.55,2.55,0,0,1,1.38-2.38,13.26,13.26,0,0,0,2-2.84A23,23,0,0,1,99,53.38c-.31-.43-.7-.94-1-1.33C96.26,49.78,95.9,49.31,96,48.5a1.56,1.56,0,0,1,.65-1,1.51,1.51,0,0,1,2.09.41,1.92,1.92,0,0,1,.21.46c.24.39.91,1.28,1.37,1.89,1.75,2.3,2.16,2.85,2,3.69a1.59,1.59,0,0,1-.65,1c-1,.69-2.12,2.51-3.08,4.11a16.08,16.08,0,0,1-2.4,3.4c.35.17.76.34,1.06.47,1.59.67,3.23,1.37,3.38,2.9a2.48,2.48,0,0,1-1.34,2.33c-1.2.82-3.21.62-5.75.36A23.11,23.11,0,0,0,89,68.36a60.44,60.44,0,0,0,5.34,6.13c5,5.31,8.08,8.69,7.8,11.17a2.47,2.47,0,0,1-1.09,1.81c-1.48,1-4.1.81-6.87.6L92.7,88a2.55,2.55,0,0,1-1.31,1.87,1.5,1.5,0,0,1-2.08-.41A1.46,1.46,0,0,1,89.1,89,2,2,0,0,1,87.7,88.18ZM95.57,63Zm2.81-13h0Z"/><path class="cls-2" d="M145.53,87.55a2.74,2.74,0,0,1-.67-2,1.74,1.74,0,0,1,.69-1.1c2.11-1.42,5-.4,7.8.59,1.54.54,3.88,1.37,4.52.94a.36.36,0,0,0,.09-.08c-.38-.73-2.39-2.1-3.5-2.86-2.39-1.65-4.27-2.95-4.26-4.7a2.38,2.38,0,0,1,1.16-2c3.52-2.38,8,2.37,12.79,7.4,2,2.17,6.86,7.25,7.9,6.54.8-1.8-7.2-10-11.49-14.38-7.95-8.13-12.8-13.29-12.44-16.79a3,3,0,0,1,1.37-2.28,3,3,0,0,1,2.32-.45c2.95.61,6,5.15,11.11,13.12,4.88,7.6,11,17.06,15.71,18a3.1,3.1,0,0,0,2.52-.51c.29-.19.3-.34.31-.44.18-2.49-6.79-8.84-12.4-14-8.19-7.45-15.92-14.5-15.55-19.64a4.75,4.75,0,0,1,2.22-3.65,5.65,5.65,0,0,1,4.58-.87,8,8,0,0,1,2.31.94,5.28,5.28,0,0,1-.38-2.35,3.37,3.37,0,0,1,1.52-2.55,4.5,4.5,0,0,1,3.53-.66c2.92.62,6.22,4,9.75,8.67A5.24,5.24,0,0,1,179,50.34a5.15,5.15,0,0,1,4.08-.78,9.32,9.32,0,0,1,3.54,1.72,4.31,4.31,0,0,1,0-.88,3.87,3.87,0,0,1,1.75-2.9,3.23,3.23,0,0,1,2.55-.47c3.37.76,6.84,6.34,12.68,16.15,5.63,9.47,12.64,21.25,18.31,22.52a3.77,3.77,0,0,0,3.11-.6,1,1,0,0,0,.48-.75c.3-3.27-8-11.46-14-17.43-8.24-8.14-13.28-13.3-13-16.79a3.07,3.07,0,0,1,1.38-2.31c2.83-1.9,6.14,0,9.73,3.82v-.23a3.84,3.84,0,0,1,1.88-3.12c3.45-2.33,7.84,3.05,13.4,9.86,3.61,4.41,9.64,11.8,11.6,10.47.75-1.75-6.79-9.62-10.42-13.41-6.27-6.53-9.53-10.06-9.26-12.52a2.29,2.29,0,0,1,1-1.72c3.43-2.32,8.16,2.14,12.73,6.45l1.59,1.49a3,3,0,0,1,1.28-1.54,13.6,13.6,0,0,1,4.42-1.4,29.54,29.54,0,0,0,3.57-.9l-.58-.79c-1.66-2.26-1.88-2.56-1.75-3.31a1.55,1.55,0,0,1,.65-1,1.5,1.5,0,0,1,2.08.41,1.41,1.41,0,0,1,.18.37c.22.34.83,1.18,1.26,1.75,1.73,2.37,1.95,2.67,1.82,3.44a1.5,1.5,0,0,1-.65,1,18,18,0,0,1-6,2c-.88.18-1.9.4-2.62.63l.75.32c1.56.65,3.18,1.33,3.34,2.84A2.5,2.5,0,0,1,238.58,55c-2.53,1.7-5.87-1.44-10.1-5.43-2.45-2.31-6.86-6.46-8.63-6.27.69,1.81,5.26,6.58,8.36,9.81,7.25,7.57,11.63,12.4,11.28,15.73a3,3,0,0,1-1.35,2.24c-1.46,1-3.06.83-4.79-.09,1.9,2.16,3.05,4.24,3,6.23a5.14,5.14,0,0,1-2.55,4.14c-2.36,1.59-5.15-.22-8.37-3.88,2.11,2.82,3.22,5.16,3,7.11a3.91,3.91,0,0,1-1.78,3,6.75,6.75,0,0,1-5.45,1,9.31,9.31,0,0,1-2.48-1,4.61,4.61,0,0,1,0,.53,3.07,3.07,0,0,1-1.38,2.31,3.73,3.73,0,0,1-2.9.54c-1.75-.37-3.65-2-5.68-4.34a4.67,4.67,0,0,1-2.22,4.52,4.22,4.22,0,0,1-3.3.61c-1.89-.4-3.93-2-6.12-4.41,0,.16,0,.32,0,.47a4.26,4.26,0,0,1-1.93,3.2,4.38,4.38,0,0,1-3.5.65c-2.36-.53-4.8-2.91-7.37-6.39a4.44,4.44,0,0,1,.15,1.47,3.5,3.5,0,0,1-1.62,2.72,6.13,6.13,0,0,1-4.81,1,9.25,9.25,0,0,1-3-1.27,4.43,4.43,0,0,1,.08,1.29,3.06,3.06,0,0,1-1.36,2.27c-3.15,2.13-7.14-2.09-11.76-7-.49-.52-1-1.1-1.61-1.69A3.27,3.27,0,0,1,161,86a2.91,2.91,0,0,1-1.47,2.46c-1.89,1.28-4.46.37-7.19-.6a22.31,22.31,0,0,0-3.62-1c.39.5.83,1,1.19,1.48,2.09,2.58,2.69,3.37,2.55,4.33a1.76,1.76,0,0,1-.68,1.08,1.52,1.52,0,0,1-2.09-.4,1.56,1.56,0,0,1-.25-.71c-.33-.53-1.24-1.64-1.86-2.41C146.64,89,146,88.2,145.53,87.55Zm13-5.24c-1.86-1.81-3.75-3.4-4.88-3.57a29.38,29.38,0,0,0,2.5,1.85C157,81.17,157.82,81.74,158.54,82.31Zm-1.39-16.13c-2.43-3.61-4.92-6.91-6-6.85-.76,1.57,5.39,8.14,9.83,12.72l-.59-.91C159.42,69.63,158.29,67.87,157.15,66.18ZM169,60.82c-3.33-4.94-6.6-8.78-9.34-9.4a2.72,2.72,0,0,0-2.24.43,1.75,1.75,0,0,0-.91,1.39c-.26,3.69,8,11.18,14.58,17.21,3.74,3.4,6.83,6.26,9.1,8.71-1.34-2.16-2.71-4.49-4.14-6.9C173.76,68.4,171.36,64.34,169,60.82ZM174.56,64c1.34,2.18,2.69,4.46,4.06,6.78,4.8,8.11,10.23,17.3,13.71,18.09a1.39,1.39,0,0,0,1.16-.21,1.28,1.28,0,0,0,.62-1c.37-3.89-9-13.17-16.5-20.62Zm3.28-5.06c-4.26-6.32-8.34-11.48-11.17-12.07a1.49,1.49,0,0,0-1.23.2.41.41,0,0,0-.21.35c-.27,2.84,7.91,11,14.49,17.49,2,2,3.82,3.8,5.52,5.54l-.84-1.34C182.26,65.67,180,62.13,177.84,58.89Zm9.69,9.52c5.93,9.41,12.51,19.68,16.33,20.49a1.24,1.24,0,0,0,1-.17,1.7,1.7,0,0,0,.92-1.36c.18-3.32-7.66-10-13.95-15.28Q189.61,70.2,187.53,68.41ZM194,64.69c-4.14-6.14-8.39-11.54-11.53-12.2a2.2,2.2,0,0,0-1.79.34,1.78,1.78,0,0,0-1,1.45c-.19,3.41,7.74,10.12,14.11,15.52,2.87,2.43,5.61,4.75,7.94,6.94l-2.46-3.87C197.59,70.23,195.79,67.39,194,64.69Zm7.56,6.16.27.42c4.81,7.6,10.26,16.21,13.25,16.84a.75.75,0,0,0,.62-.1c1-1.83-8.15-11.11-13.08-16.09Zm-6.32-15.48c-2-3-3.79-5.15-5-5.41-.13,0-.16,0-.21,0a.89.89,0,0,0-.44.72C189.26,53.87,196.45,61.42,203,68l-2-3.31C199.08,61.51,197.05,58.1,195.21,55.37ZM223,74.59c-1.81-2.34-3.74-5.09-5.81-8-5.09-7.25-12.79-18.2-15.68-16.25-.83,1.8,7.52,10,12,14.47C217.3,68.5,220.53,71.75,223,74.59Zm9.34,0c-2.06-3-7-6.94-11.16-10.22-1.49-1.18-2.94-2.32-4.28-3.42.91,1.27,1.82,2.57,2.75,3.88a129.93,129.93,0,0,0,8.25,11c3.26,3.63,4.18,3.08,4.18,3.07,1.07-.72,1.22-1.35,1.23-1.76A4.54,4.54,0,0,0,232.36,74.59Zm-6-10c-1.25-1.45-2.53-3-3.82-4.6-2.46-3-8.22-10.06-9.41-9.26-.54.36-.55.63-.55.74-.08,2.18,5.78,6.79,10.48,10.5C224.18,62.9,225.29,63.77,226.36,64.64Zm10.72-12.23Zm4.86-10.61a1.5,1.5,0,0,1-.54.66A1.47,1.47,0,0,0,241.94,41.8Z"/><path class="cls-3" d="M69.59,171.24a2.73,2.73,0,0,1-.57-1.77,1.87,1.87,0,0,1,.85-1.44c1.69-1.14,4.58-.39,7.91.48a18.25,18.25,0,0,0,4.38.84c.32-.22.36-.36.36-.36.1-.88-3.47-3.31-5-4.35-3.13-2.14-5.6-3.82-5.6-5.94a2.76,2.76,0,0,1,1.37-2.34c1.72-1.15,4.37,0,7.72,1.58,1.63.74,4.95,2.25,5.88,2,0-1.77-5.6-7.62-8.63-10.8-5.26-5.52-8-8.5-7.76-10.64a2.2,2.2,0,0,1,1-1.59c2.8-1.89,6.93,1.08,10.92,4l.42.3A2.63,2.63,0,0,1,84.18,139a13.54,13.54,0,0,1,4.42-1.39,33.82,33.82,0,0,0,3.57-.9l-.59-.8c-1.66-2.27-1.87-2.56-1.74-3.31a1.51,1.51,0,0,1,2.73-.59,1.41,1.41,0,0,1,.18.37c.22.34.83,1.18,1.25,1.75,1.7,2.32,2,2.68,1.83,3.44a1.55,1.55,0,0,1-.65,1c-1.53,1-3.88,1.53-6,2-.88.19-1.9.4-2.61.63l.72.31c1.57.65,3.19,1.32,3.34,2.83a2.48,2.48,0,0,1-1.33,2.33c-2.09,1.41-5-.7-8.72-3.37-2-1.41-5.36-3.87-6.92-4,.9,1.65,4.35,5.28,6.73,7.78,6.08,6.38,9.74,10.46,9.43,13.31a2.74,2.74,0,0,1-1.21,2c-2.05,1.39-5.37-.12-8.88-1.72a21.31,21.31,0,0,0-4.72-1.77,23.83,23.83,0,0,0,4.16,3.26c3.25,2.21,6.32,4.31,6.31,6.83a3.44,3.44,0,0,1-1.75,2.9c-1.31.88-3.32.42-6.75-.48a41.47,41.47,0,0,0-4.15-.92c.51.54,1.15,1.15,1.65,1.63,2.5,2.38,4,3.92,3.88,5.53a2.11,2.11,0,0,1-1,1.61,1.51,1.51,0,0,1-2.09-.41,1.49,1.49,0,0,1-.07-1.55,24.7,24.7,0,0,0-2.84-3A21.28,21.28,0,0,1,69.59,171.24Zm12.62-1.9Zm10-35.22h0Zm.55-.66a1.5,1.5,0,0,1-.54.66A1.47,1.47,0,0,0,92.71,133.46Z"/><path class="cls-4" d="M126.85,171.73a2.81,2.81,0,0,1-.7-2,1.64,1.64,0,0,1,.71-1.14c2.23-1.51,5.24-.24,8.14,1,1.6.67,4,1.69,4.66,1.25l.16-.12c-.32-.77-2.58-2.36-3.83-3.23-2.52-1.77-4.51-3.17-4.5-5a2.46,2.46,0,0,1,1.18-2c3.62-2.44,8.21,2.53,13.06,7.79,2.28,2.48,7,7.62,8.12,6.88.07-.05.07-.05.08-.12.23-2.32-6.73-9.43-11.81-14.63-8.15-8.32-13.07-13.62-12.71-17.11a3.11,3.11,0,0,1,1.39-2.32,3,3,0,0,1,2.34-.45c1.45.31,2.91,1.54,4.63,3.66-1.65-2.31-2.59-4.44-2.46-6.31a4.77,4.77,0,0,1,2.22-3.66,5.65,5.65,0,0,1,4.58-.87,8,8,0,0,1,2.31.94,5.24,5.24,0,0,1-.38-2.35,3.4,3.4,0,0,1,1.52-2.55,4.54,4.54,0,0,1,3.53-.66c2.92.62,6.22,4,9.75,8.68a5.2,5.2,0,0,1,1.93-2.22,5.15,5.15,0,0,1,4.08-.78,9.32,9.32,0,0,1,3.54,1.72,4.22,4.22,0,0,1,0-.87,3.89,3.89,0,0,1,1.75-2.91,3.23,3.23,0,0,1,2.55-.47c3.37.76,6.84,6.35,12.67,16.16,5.64,9.47,12.64,21.25,18.31,22.52a3.79,3.79,0,0,0,3.12-.61.9.9,0,0,0,.47-.75c.31-3.27-8-11.45-14-17.43-8.24-8.14-13.28-13.3-13-16.78a3.05,3.05,0,0,1,1.38-2.31c2.83-1.91,6.14,0,9.73,3.81v-.22a3.86,3.86,0,0,1,1.88-3.13c3.45-2.33,7.84,3.05,13.4,9.86,3.6,4.41,9.64,11.8,11.6,10.48.75-1.76-6.79-9.63-10.42-13.41-6.27-6.54-9.53-10.07-9.26-12.53a2.33,2.33,0,0,1,1-1.72c3.43-2.31,8.16,2.14,12.73,6.45l1.59,1.49a3,3,0,0,1,1.28-1.54,13.87,13.87,0,0,1,4.42-1.39,32.06,32.06,0,0,0,3.57-.91l-.58-.79c-1.66-2.26-1.88-2.55-1.75-3.3a1.52,1.52,0,0,1,.65-1,1.5,1.5,0,0,1,2.08.4,1.57,1.57,0,0,1,.18.37c.22.34.83,1.18,1.26,1.76,1.73,2.36,2,2.66,1.82,3.43a1.55,1.55,0,0,1-.65,1c-1.53,1-3.88,1.53-6,2-.88.19-1.9.41-2.62.63l.74.32c1.57.65,3.19,1.33,3.34,2.85a2.45,2.45,0,0,1-1.33,2.32c-2.53,1.71-5.87-1.44-10.1-5.42-2.45-2.31-6.86-6.46-8.63-6.28.69,1.81,5.26,6.58,8.36,9.81,7.25,7.57,11.63,12.41,11.28,15.73a3,3,0,0,1-1.35,2.24c-1.46,1-3.07.83-4.79-.09,1.89,2.16,3,4.24,3,6.24a5.14,5.14,0,0,1-2.55,4.13c-2.36,1.6-5.15-.21-8.37-3.88,2.11,2.82,3.22,5.17,3,7.12a3.92,3.92,0,0,1-1.78,3,6.75,6.75,0,0,1-5.45,1,9.17,9.17,0,0,1-2.49-1,3.11,3.11,0,0,1,0,.53,3,3,0,0,1-1.38,2.31,3.73,3.73,0,0,1-2.9.55c-1.75-.37-3.65-2-5.68-4.34a4.52,4.52,0,0,1,0,.82,4.64,4.64,0,0,1-2.24,3.69,4.19,4.19,0,0,1-3.3.62c-1.89-.4-3.93-2-6.12-4.41,0,.16,0,.31,0,.46a4.3,4.3,0,0,1-1.93,3.21,4.42,4.42,0,0,1-3.5.65c-2.36-.53-4.8-2.92-7.37-6.4a4.52,4.52,0,0,1,.15,1.48,3.5,3.5,0,0,1-1.62,2.71,6.16,6.16,0,0,1-4.87,1,9.42,9.42,0,0,1-2.91-1.19,3.9,3.9,0,0,1,.06,1.17,3.06,3.06,0,0,1-1.38,2.3c-3.24,2.19-7.3-2.22-12-7.32l-1.38-1.5a3.5,3.5,0,0,1,.7,2,3,3,0,0,1-1.5,2.51c-2,1.34-4.67.22-7.5-1a22.15,22.15,0,0,0-3.84-1.36c.48.61,1.05,1.3,1.47,1.81,2.25,2.71,3,3.61,2.81,4.64a1.59,1.59,0,0,1-.7,1.12,1.49,1.49,0,0,1-2.08-.4,1.43,1.43,0,0,1-.25-.81c-.38-.57-1.39-1.79-2.09-2.63C128.09,173.37,127.33,172.45,126.85,171.73Zm13-1.12Zm.67-3.52c-2.17-2.21-4.46-4.26-5.71-4.31a26.49,26.49,0,0,0,2.88,2.2C138.72,165.69,139.71,166.38,140.55,167.09ZM138.28,150c-2.38-3.53-4.75-6.64-5.81-6.56-.07.06-.07.07-.08.14-.21,2.08,5.26,7.93,10.06,12.87-.19-.31-.38-.61-.58-.91C140.8,153.8,139.54,151.82,138.28,150Zm2.38-1.85c1.12,1.67,2.36,3.6,3.74,5.77,5,7.79,11.13,17.48,16,18.48a3.17,3.17,0,0,0,2.58-.51c.29-.2.3-.34.31-.45.18-2.49-6.8-8.84-12.4-13.94-4.54-4.14-8.94-8.15-11.9-11.77C139.5,146.41,140.06,147.22,140.66,148.1Zm10.13-2.49c-3.33-4.94-6.6-8.78-9.34-9.4a2.68,2.68,0,0,0-2.24.43,1.73,1.73,0,0,0-.91,1.38c-.26,3.69,8,11.19,14.58,17.21,3.74,3.4,6.83,6.26,9.1,8.72-1.34-2.17-2.72-4.5-4.14-6.91C155.56,153.19,153.16,149.12,150.79,145.61Zm5.57,3.12c1.34,2.18,2.69,4.47,4.06,6.79,4.8,8.11,10.23,17.3,13.71,18.08a1.36,1.36,0,0,0,1.16-.21,1.28,1.28,0,0,0,.62-1c.37-3.88-9-13.16-16.5-20.62Zm3.28-5.06c-4.26-6.32-8.34-11.47-11.17-12.07a1.49,1.49,0,0,0-1.23.21.38.38,0,0,0-.21.34c-.27,2.84,7.91,11,14.49,17.49,2,2,3.82,3.8,5.52,5.54l-.84-1.33C164.06,150.46,161.83,146.91,159.64,143.67Zm9.69,9.52c5.93,9.41,12.51,19.69,16.33,20.49a1.17,1.17,0,0,0,1-.16,1.71,1.71,0,0,0,.93-1.37c.18-3.31-7.66-10-14-15.28C172.15,155.61,170.7,154.38,169.33,153.19Zm6.44-3.72c-4.14-6.14-8.39-11.53-11.53-12.19a2.19,2.19,0,0,0-1.79.33,1.79,1.79,0,0,0-1,1.45c-.19,3.41,7.74,10.12,14.11,15.52,2.87,2.43,5.61,4.75,7.94,6.94l-2.46-3.86C179.39,155,177.59,152.17,175.77,149.47Zm7.56,6.16.27.42c4.81,7.6,10.26,16.21,13.25,16.84a.72.72,0,0,0,.62-.1c1-1.83-8.15-11.11-13.09-16.09ZM177,140.15c-2-3-3.79-5.14-5-5.41-.13,0-.16,0-.21,0a.86.86,0,0,0-.44.71c-.32,3.17,6.87,10.73,13.38,17.33l-2-3.31C180.88,146.3,178.85,142.89,177,140.15Zm27.81,19.22c-1.81-2.34-3.75-5.09-5.81-8-5.09-7.24-12.79-18.2-15.68-16.24-.83,1.8,7.52,10,12,14.47C199.1,153.28,202.33,156.53,204.82,159.37Zm9.34,0c-2.06-3-7-6.93-11.16-10.21-1.49-1.18-2.94-2.32-4.28-3.43.91,1.27,1.82,2.58,2.75,3.89a131.58,131.58,0,0,0,8.25,11c3.26,3.62,4.17,3.07,4.18,3.06,1.07-.72,1.22-1.34,1.23-1.76A4.54,4.54,0,0,0,214.16,159.37Zm-6-10c-1.25-1.45-2.53-3-3.82-4.59-2.46-3-8.22-10.07-9.41-9.27-.54.37-.55.63-.55.75-.08,2.17,5.77,6.79,10.48,10.49C206,147.68,207.09,148.55,208.16,149.42Zm15.58-22.84a1.52,1.52,0,0,1-.54.67A1.55,1.55,0,0,0,223.74,126.58Z"/><path class="cls-5" d="M152.11,45.86c-.17.11,3.19,4.34,3,4.46-2.36,1.59-7.69,1.83-9.32,2.93-3.43,2.32,6.74,2.81,3.41,5s-14.52-14.48-19-11.45c-3.92,2.64,23.9,23.76,18.49,27.42-5.86,4-20-23.35-24.84-20.09-8.52,5.74,31.19,23,20.4,30.25-6.19,4.18-24.29-35.93-32-30.72-8.41,5.68,43,40.83,32.38,48C129.28,112.06,110,49.25,101.7,54.83c-13.12,8.84,52.24,54.7,41.7,61.81C135,122.29,115.07,67.49,104,75c-15.49,10.45,51.9,44.17,36.7,54.42-9.17,6.18-31.87-51.4-41.56-44.87-10.4,7,51,48.15,38.29,56.75-9,6-25.64-45.07-36.68-37.63-13,8.8,42.53,41.29,32.44,48.09-13.11,8.85-30.45-43.61-37.5-38.86C84.8,120.2,143,159.7,132.2,167c-8.3,5.59-24.81-40-34.06-33.76-10.39,7,41.47,32.37,28,41.47-9.85,6.65-22.55-40.38-33.53-33s43.76,43.56,33.88,50.23-25.38-47.89-37.89-39.44c-13.56,9.14,43.85,46.59,35.31,52.35-6.95,4.69-28.07-43.64-36.77-37.77s38.05,37.47,29.27,43.39c-10.6,7.15-23.19-38.39-32.81-31.9-7.63,5.15,45.41,44.07,34.63,51.34-11,7.45-30.78-45.22-38.35-40.12-13.2,8.9,40.57,43.68,32.94,48.83-9.72,6.56-27.19-44-36.68-37.64-10.55,7.12,44.14,46.55,35.38,52.46C103,259.21,82,202.83,71.05,210.24c-9,6.06,38.38,36.55,28.94,42.91-7.42,5-24.72-38.55-33.36-32.72C57,227,97.54,253.08,91.43,257.2,84.24,262.05,71,226,62.82,231.51c-5.71,3.85,23.91,24,18.6,27.58-5.08,3.43-15.83-19.32-21.66-15.38-4.71,3.17,11,9,7.64,11.33-2.62,1.77-11.43-7.93-15-5.52-1.61,1.09,8.84,8.6,6.75,10"/><path class="cls-6" d="M50.59,251a3.05,3.05,0,0,1-.68-2,1.86,1.86,0,0,1,.82-1.37c3-2,7,1.55,11.28,5.35,1.82,1.63,6.07,5.44,6.91,4.87.2-1.3-4.6-6-7.18-8.44-4.56-4.41-7.13-7-6.94-9.16a2.34,2.34,0,0,1,1.05-1.77c2-1.36,4.2-.78,6.47.78A6.7,6.7,0,0,1,60.6,235a4.08,4.08,0,0,1,2-3.28,4.82,4.82,0,0,1,3.76-.76A9.81,9.81,0,0,1,71,233.7c-5.08-5.36-7.91-9.24-7.64-12.23a3.77,3.77,0,0,1,1.71-2.85,5.72,5.72,0,0,1,2.6-1c-1.41-2.41-2.17-4.63-2-6.56a5.79,5.79,0,0,1,2.66-4.39,5,5,0,0,1,4-.75,7.18,7.18,0,0,1,.87.26c-2-2.79-3.11-5.23-2.94-7.24a4.31,4.31,0,0,1,2-3.28,5.33,5.33,0,0,1,4.24-.8c-1.25-2.24-1.9-4.23-1.74-5.88a4.48,4.48,0,0,1,2-3.36,4.73,4.73,0,0,1,2.32-.81,11.88,11.88,0,0,1-1.9-6.56,6,6,0,0,1,2.79-4.59,3.58,3.58,0,0,1,2.82-.52c4,.86,8.44,7.78,15.37,19,6,9.69,13.43,21.76,18.56,22.87a2.71,2.71,0,0,0,2.17-.4,1.76,1.76,0,0,0,.83-1.36c.51-5-11.21-17-20.62-26.65-11-11.29-17.77-18.42-17.35-22.57a3.16,3.16,0,0,1,1.42-2.38,4.93,4.93,0,0,1,4-.77,6.67,6.67,0,0,1,1.88.77c-3.16-3.8-4.82-6.78-4.59-9.18a3.91,3.91,0,0,1,1.79-3,4.41,4.41,0,0,1,2.16-.75c-2.68-3.74-4.25-7.14-4-9.95a6,6,0,0,1,2.82-4.62A6.45,6.45,0,0,1,90.8,133c-1.61-2.52-2.48-4.78-2.31-6.68a4.8,4.8,0,0,1,2.2-3.65,5.79,5.79,0,0,1,4.73-.92h0A8.17,8.17,0,0,1,93.68,117a4.4,4.4,0,0,1,2.11-3.5,4.88,4.88,0,0,1,3.88-.75,8.82,8.82,0,0,1,3.59,1.87c-7.51-7.74-12.89-14.29-12.47-18.74a4.57,4.57,0,0,1,2.07-3.45A3.32,3.32,0,0,1,95.52,92a3.64,3.64,0,0,1,.47.14A9.76,9.76,0,0,1,94.68,87a5.8,5.8,0,0,1,2.74-4.51,5.7,5.7,0,0,1,4.61-.87,8.21,8.21,0,0,1,2.63,1.13c-7.36-7.62-11.49-13-11.15-16.79a4.19,4.19,0,0,1,1.91-3.18A4.61,4.61,0,0,1,97.75,62a9.15,9.15,0,0,1-1-4.31,6.38,6.38,0,0,1,3.1-5.06,5.55,5.55,0,0,1,3.17-1c-5.24-6.2-8.6-11.6-8.22-15.52A5.42,5.42,0,0,1,97.26,32a3.57,3.57,0,0,1,2.9-.51c4,1,8.35,8.56,15.06,20.85,3.67,6.71,7.82,14.32,12,20.14,3,3,5.65,5.81,7.92,8.32a8.33,8.33,0,0,0,2.4,1,5,5,0,0,0,4.11-.79,1.76,1.76,0,0,0,.85-1.36c.43-4.63-10.37-15.33-19.05-23.92-11-10.87-17.69-17.76-17.28-22.2a3.6,3.6,0,0,1,1.62-2.71c2.84-1.91,6.12-.06,9.69,3.69v0a4,4,0,0,1,1.92-3.19c3.54-2.38,8,3.21,13.68,10.28,3.69,4.61,9.86,12.31,11.91,10.93.07,0,.07,0,.07-.11.25-2.27-6.41-9.21-10.81-13.79-6.45-6.73-9.81-10.36-9.54-12.89a2.33,2.33,0,0,1,1-1.74c3.49-2.36,8.28,2.26,12.92,6.71L140,32a3,3,0,0,1,1.32-1.63A13.31,13.31,0,0,1,145.78,29a31.59,31.59,0,0,0,3.57-.88l-.59-.81c-1.67-2.28-1.89-2.57-1.75-3.32a1.5,1.5,0,0,1,2.72-.6,1.93,1.93,0,0,1,.19.38c.22.35.84,1.19,1.26,1.76,1.71,2.32,2,2.68,1.83,3.45a1.53,1.53,0,0,1-.64,1c-1.54,1-3.9,1.53-6,2a26.76,26.76,0,0,0-2.79.67c.37.18.78.37,1.09.5,1.72.77,3.34,1.48,3.48,3a2.54,2.54,0,0,1-1.35,2.34c-2.58,1.73-6-1.52-10.24-5.64-2.68-2.59-7.06-6.79-8.83-6.52.64,1.84,5.42,6.82,8.66,10.19,7.48,7.79,12,12.77,11.63,16.18A3.1,3.1,0,0,1,146.66,55a4.24,4.24,0,0,1-4.48.09c1.92,2.21,3.09,4.35,3,6.38a5.26,5.26,0,0,1-2.6,4.23c-4.28,2.89-9.88-5.2-17-15.44-5.23-7.56-13.13-19-16.16-16.93a.6.6,0,0,0-.31.5c-.3,3.25,9,12.42,16.4,19.79C136.09,64.08,146,73.93,145.48,80a4.75,4.75,0,0,1-2.16,3.57A7.94,7.94,0,0,1,138.77,85c3.81,4.67,5.8,8.24,5.54,10.92A4.13,4.13,0,0,1,142.46,99a3.93,3.93,0,0,1-2.41.68c2,2.78,3.21,5.36,3.09,7.66a6.25,6.25,0,0,1-3,4.94,4.31,4.31,0,0,1-3,.7c1.79,2.88,2.76,5.45,2.56,7.61a5.41,5.41,0,0,1-2.48,4.11,4.38,4.38,0,0,1-3.52.65A7.32,7.32,0,0,1,131,124c2.8,3.28,4.46,6.13,4.29,8.44a4.21,4.21,0,0,1-1.94,3.25,7.23,7.23,0,0,1-4.13,1.3c3.63,4.42,5.82,8.2,5.55,11.07a4.49,4.49,0,0,1-2.06,3.42,4.23,4.23,0,0,1-3.09.7,7.63,7.63,0,0,1,.39,2.66,6.2,6.2,0,0,1-3,4.9,5,5,0,0,1-4.1.78c-4.86-1.14-9.29-9-14.43-18-4.47-7.89-9.55-16.84-13.72-17.82a2.84,2.84,0,0,0-2.36.49,1.81,1.81,0,0,0-.89,1.43c-.18,1.95,1.66,5,4.5,8.42a29.77,29.77,0,0,1,6,6.58c2.86,2.95,6,6,8.83,8.74,12,11.65,19.25,19.07,18.81,24a4.16,4.16,0,0,1-1.89,3.16,4.71,4.71,0,0,1-3.8.7c-4.94-1.18-9.86-10-15.56-20.18-2.79-5-5.78-10.36-8.72-14.53-2.14-2.2-4.09-4.33-5.74-6.34a6.55,6.55,0,0,0-2.21-1.06,3.4,3.4,0,0,0-2.82.55,3.12,3.12,0,0,0-1.5,2.4c-.26,3.07,2.9,7.7,7.39,12.8a39.65,39.65,0,0,1,3.73,4c3.54,3.68,7.47,7.44,11.09,10.9,11.07,10.59,17.84,17.29,17.48,21.54a3.5,3.5,0,0,1-4.24,3.13c-1.48-.29-3.09-1.45-4.92-3.38l0,0c1.59,2.36,2.38,4.35,2.23,6a3.92,3.92,0,0,1-1.79,3,5.58,5.58,0,0,1-4.4.92c5.81,6.67,9.11,11.78,8.72,15.52a4.74,4.74,0,0,1-2.13,3.54A5.62,5.62,0,0,1,116,218a9.3,9.3,0,0,1-3-1.35c2.68,3.1,4,5.47,3.88,7.35a3.11,3.11,0,0,1-1.42,2.4,4.86,4.86,0,0,1-3.84.72c-5.24-1.14-11-10.52-17-20.45-2.28-3.74-4.7-7.7-7-11a81.83,81.83,0,0,1-5.86-6.77,5.15,5.15,0,0,0-1.92-1,1.68,1.68,0,0,0-1.41.26,1.47,1.47,0,0,0-.71,1.18c-.47,4.65,10.85,16.17,19.94,25.43,11.8,12,19,19.61,18.53,24.28a3.6,3.6,0,0,1-1.61,2.7,4,4,0,0,1-3.1.57,6.62,6.62,0,0,1-2.26-1.05,8,8,0,0,1,.9,4,4.58,4.58,0,0,1-2.1,3.48,4.13,4.13,0,0,1-3.27.61c-4.75-1-10.19-9.77-16.48-19.9-5.71-9.2-12.19-19.64-16.56-20.57a2,2,0,0,0-1.66.3,2.75,2.75,0,0,0-1.35,2.15c-.16,1.94,1.2,4.57,3.44,7.54,2.61,1.67,5.22,4.82,7.86,8.8,2.82,2.84,5.84,5.7,8.65,8.36,10,9.49,16.14,15.5,15.82,19.43a3.33,3.33,0,0,1-1.5,2.53,4.71,4.71,0,0,1-3.75.7,10.25,10.25,0,0,1-4.91-3.3,4.83,4.83,0,0,1,.21,1.84,3.46,3.46,0,0,1-1.57,2.63,4.16,4.16,0,0,1-3.18.64c-3.87-.76-7.76-6.61-12.27-13.37-4-5.92-8.43-12.63-11.67-13.27a1.83,1.83,0,0,0-1.5.31c-.66.44-.68.78-.69.92-.09,2.09,4.93,6.14,8.59,9.09,5.07,4.09,8.18,6.73,8.07,9.28a2.9,2.9,0,0,1-1.38,2.34c-3.05,2.06-6.78-2.14-11.09-7-3.08-3.48-7.65-8.64-9.88-8,.65,1.35,3.79,4.38,5.93,6.45,5.18,5,8.3,8.25,8.07,10.92a2.86,2.86,0,0,1-1.3,2.17c-2.78,1.87-6.4-1.37-10.59-5.12a39.81,39.81,0,0,0-6.1-4.81c.65.73,1.47,1.58,2.11,2.25,3,3.09,4.67,4.93,4.49,6.6a2.06,2.06,0,0,1-.91,1.52,1.5,1.5,0,0,1-2.17-1.93,31,31,0,0,0-3.57-4.11A32.61,32.61,0,0,1,50.59,251Zm7.33,7.25Zm19-5.65c-1-1.55-4.46-4.3-6.65-6.07-.63-.5-1.25-1-1.86-1.51L70,246.8c2.12,2.39,6.06,6.84,7.17,6.53l.06-.05A1.73,1.73,0,0,0,76.94,252.59Zm13.27,1.31c-2.37-3.51-7.6-8.64-12-13-2.07-2-4-3.89-5.64-5.62a95.93,95.93,0,0,1,7.4,10.19c3.62,5.42,7.72,11.57,10.36,12.09a1.15,1.15,0,0,0,.92-.18.5.5,0,0,0,.27-.42A5.7,5.7,0,0,0,90.21,253.9ZM70.06,221.15a5.13,5.13,0,0,0-1.18-.46,2.59,2.59,0,0,0-2.13.42.76.76,0,0,0-.4.63c-.28,3.09,7.6,10.82,13.93,17,2.86,2.8,5.36,5.29,7.44,7.5-1.25-2-2.53-4.2-3.85-6.45-2-3.44-4.15-7.07-6.26-10.23A91.75,91.75,0,0,1,70.06,221.15ZM86.25,238l.21.35c4.59,7.81,9.79,16.67,13.37,17.48a1.69,1.69,0,0,0,1.41-.27c.17-.11.18-.18.19-.28.22-2.7-8.16-10.63-14.89-17Zm-.73-18.37c1.72,2.62,3.47,5.44,5.25,8.3,5.18,8.34,11,17.8,14.55,18.55a1.19,1.19,0,0,0,1-.17,1.55,1.55,0,0,0,.78-1.25c.38-4.26-10-14.23-18.25-22.23ZM87,209.5c-4.13-6.12-8.13-11-11.24-11.68a2.43,2.43,0,0,0-1.94.35,1.34,1.34,0,0,0-.66,1.06c-.34,4,9.67,13.63,17.71,21.39,2.84,2.73,5.57,5.37,8,7.88-1.45-2.28-3-4.73-4.5-7.26C92.05,217.31,89.52,213.18,87,209.5ZM95,216.34q1,1.65,2,3.33c5.44,8.88,11.61,19,15.06,19.7a.91.91,0,0,0,.78-.13.62.62,0,0,0,.31-.51c.36-3.51-9.65-13.7-17.69-21.88Zm-5.49-32.17c-2.93-4.34-5.62-7.69-7.37-8.07a.62.62,0,0,0-.51.07,3,3,0,0,0-1.48,2.36c-.18,2.14,1.33,5,3.8,8.29a35.57,35.57,0,0,1,5.94,6.85c3.54,3.73,7.58,7.56,11.27,11.07q2.37,2.25,4.41,4.21c-3.31-4.38-6.67-9.83-10-15.19C93.57,190.53,91.47,187.12,89.48,184.17Zm7.68,20.93c5.21,8.53,11.11,18.2,15.1,19.07a1.84,1.84,0,0,0,1.53-.28c.09-.06.09-.08.1-.15.21-2.54-8.13-10.46-14.83-16.83ZM93,170.37c-2.33-3.46-4.59-6.09-6.5-6.53a2,2,0,0,0-1.66.34c-.08,0-.1.08-.12.2-.3,3,9,12.5,16.51,20.16l.7.72c-1.08-1.79-2.16-3.66-3.26-5.56C96.8,176.54,94.86,173.18,93,170.37Zm2.55-1.6c1.88,2.79,3.78,6.07,5.72,9.43,4.34,7.5,9.25,16,13.23,16.92a2.69,2.69,0,0,0,2.2-.45,1,1,0,0,0,.47-.76c.32-3.48-8.67-12.33-15.89-19.44-2.1-2.07-4-4-5.79-5.78Zm-3.07-14.93a7.86,7.86,0,0,0-3.34-2,1.51,1.51,0,0,0-1.21.2,1,1,0,0,0-.49.78c-.32,3.52,8.7,12.4,15.95,19.54,4,3.95,7.42,7.36,10.11,10.33-2-2.8-4.34-6.21-7-10.16-3.25-4.9-7-10.46-10.31-14.59C94.87,156.53,93.61,155.17,92.44,153.84Zm15.85,15.94.71,1.06c5.33,8,11.36,17.13,14.37,17.72.27.05.36,0,.42-.05a.47.47,0,0,0,.25-.39C124.28,185.19,116,177.12,108.29,169.78Zm.33-17.32c.78,1.36,1.55,2.75,2.33,4.14,4.68,8.37,10,17.86,13.63,18.73a1.7,1.7,0,0,0,1.43-.27,1.18,1.18,0,0,0,.59-.94c.34-3.89-9.36-13.3-17.92-21.6ZM105.76,132c1.75,2.76,3.51,5.86,5.3,9,4.19,7.38,8.93,15.74,12.51,16.58a2,2,0,0,0,1.73-.35,3.15,3.15,0,0,0,1.7-2.56c.24-4.72-9.55-12.9-17.42-19.48C108.27,134.14,107,133.06,105.76,132Zm2.88-6.28c-3.5-5.2-7-9.48-9.59-10a1.91,1.91,0,0,0-1.59.3,1.43,1.43,0,0,0-.78,1.16c-.17,3.24,7.8,9.89,14.83,15.77,1.25,1,2.5,2.09,3.71,3.12l-1.34-2.15C112.18,131.18,110.4,128.35,108.64,125.74Zm2.47-1.72c1.74,2.58,3.51,5.41,5.31,8.29,4.74,7.59,10.12,16.19,13.51,16.91a1.33,1.33,0,0,0,1.1-.2,1.51,1.51,0,0,0,.74-1.21c.26-2.78-3.71-7.87-9-13.56a33.42,33.42,0,0,1-4.71-4.88c-2.07-2.09-4.2-4.2-6.27-6.24-1.66-1.64-3.29-3.24-4.86-4.81C108.29,120,109.69,121.91,111.11,124ZM99.65,100c-1.92-2.84-3.62-4.87-4.8-5.15a.36.36,0,0,0-.31.05,1.56,1.56,0,0,0-.77,1.24c-.36,3.92,7.58,12.37,15.92,20.68-1.18-2-2.33-4-3.46-5.93C104.06,107.15,101.73,103.11,99.65,100Zm5.86,3.71c1,1.73,2.13,3.62,3.32,5.68,3.47,6,7.44,12.89,11.35,17.84,1.69,1.7,3.3,3.35,4.79,5a8.84,8.84,0,0,0,3.26,1.68,4.19,4.19,0,0,0,3.43-.67,1.19,1.19,0,0,0,.63-1c.27-3.59-8.83-11.89-16.85-19.22C112,109.85,108.54,106.73,105.51,103.74Zm5.2-9.85c-3.33-4.93-6.59-8.76-9.34-9.38A2.72,2.72,0,0,0,99.1,85a2.82,2.82,0,0,0-1.43,2.24c-.39,5.21,10.8,15.42,19.79,23.62,3.3,3,6.44,5.88,9.15,8.55a156,156,0,0,1-8.69-13.73C115.59,101.67,113.13,97.48,110.71,93.89Zm2.48-1.7c2.4,3.56,4.83,7.69,7.32,11.92,4.84,8.21,10.32,17.53,13.84,18.33a1.37,1.37,0,0,0,1.18-.22,2.45,2.45,0,0,0,1.18-1.89c.5-5.6-11.72-17.55-22.51-28.1L111,89.06C111.7,90,112.44,91.08,113.19,92.19ZM100.1,65.75A5.06,5.06,0,0,0,98.44,65a1.58,1.58,0,0,0-1.35.23,1.17,1.17,0,0,0-.59,1c-.38,4.16,10.34,14.64,19.8,23.89l4,4L117,88.72c-3.33-5.39-6.88-11.13-10.17-15.63A60.26,60.26,0,0,1,100.1,65.75Zm14.57.19c-4-5.92-7.86-10.57-11-11.26a2.65,2.65,0,0,0-2.16.39,3.39,3.39,0,0,0-1.78,2.74c-.09,1.62.85,3.6,2.48,5.82a35.61,35.61,0,0,1,6.85,7.42c3.64,3.44,7.91,7.06,12,10.48,2.41,2,4.8,4.07,7.06,6-1.78-2.77-3.63-5.85-5.57-9.07C120,74.29,117.3,69.84,114.67,65.94Zm1.08,15c1.26,2,2.54,4.07,3.83,6.16,6.36,10.29,13.57,21.94,17.75,22.84a1.32,1.32,0,0,0,1.11-.18,3.21,3.21,0,0,0,1.7-2.61c.29-5.31-11-14.9-21-23.37ZM104.27,39.46c-1.89-2.8-3.58-4.75-4.82-5.05a.54.54,0,0,0-.51.08,2.43,2.43,0,0,0-1.16,1.88c-.5,5.21,9.48,16,19.8,26.41-1.71-3-3.37-6-5-9C109.83,48.73,106.86,43.3,104.27,39.46Zm17.14,31.43c1.22,2,2.45,4,3.69,6.08,5.35,8.87,11.41,18.93,14.86,19.69a.93.93,0,0,0,.82-.13,1.12,1.12,0,0,0,.54-.9c.24-2.43-3.26-7.12-8.17-12.56a35.51,35.51,0,0,1-8.24-8.65Q123.17,72.64,121.41,70.89Zm19.76-12.21C139,55.49,133.88,51.42,129.55,48c-1.47-1.17-2.9-2.29-4.23-3.39.92,1.3,1.84,2.63,2.77,4A134.5,134.5,0,0,0,136.56,60c3.36,3.81,4.31,3.24,4.35,3.21,1.12-.75,1.27-1.42,1.29-1.85A4.88,4.88,0,0,0,141.17,58.68Zm-6.69-10.59c-1.23-1.45-2.48-3-3.75-4.6-2.52-3.15-8.42-10.51-9.66-9.67-.58.39-.59.69-.6.81-.08,2.29,6,7.13,10.94,11C132.45,46.47,133.48,47.28,134.48,48.09Zm15.39-23.24a1.5,1.5,0,0,1-.54.66A1.52,1.52,0,0,0,149.87,24.85Z"/></svg>